<svg color="#ab6041" viewBox="0 0 600 250" fill="none" xmlns="http://www.w3.org/2000/svg"><defs><pattern id="grid-scatter" width="25" height="25" patternUnits="userSpaceOnUse"><path d="M25 0H0V25" stroke="currentColor" opacity=".09"/></pattern></defs><path fill="url(#grid-scatter)" d="M0 0h600v250H0z"/><circle cx="345" cy="125" r="30" stroke="currentColor" opacity="0.61"/><circle cx="345" cy="125" r="46" stroke="currentColor" opacity="0.57"/><circle cx="345" cy="125" r="62" stroke="currentColor" opacity="0.52"/><circle cx="345" cy="125" r="78" stroke="currentColor" opacity="0.48"/><circle cx="345" cy="125" r="94" stroke="currentColor" opacity="0.43"/><circle cx="345" cy="125" r="110" stroke="currentColor" opacity="0.39"/><circle cx="345" cy="125" r="126" stroke="currentColor" opacity="0.34"/><circle cx="345" cy="125" r="142" stroke="currentColor" opacity="0.29"/><circle cx="345" cy="125" r="158" stroke="currentColor" opacity="0.25"/><circle cx="345" cy="125" r="174" stroke="currentColor" opacity="0.20"/><circle cx="345" cy="125" r="190" stroke="currentColor" opacity="0.16"/><circle cx="345" cy="125" r="206" stroke="currentColor" opacity="0.11"/><circle cx="345" cy="125" r="222" stroke="currentColor" opacity="0.07"/><path d="M35 45h230" stroke="currentColor" opacity=".35"/><path d="M35 85h230" stroke="currentColor" opacity=".35"/><path d="M35 125h230" stroke="currentColor" opacity=".35"/><path d="M35 165h230" stroke="currentColor" opacity=".35"/><path d="M35 205h230" stroke="currentColor" opacity=".35"/><circle cx="345" cy="125" r="36" fill="currentColor"/><circle cx="337" cy="114" r="8" fill="#fff" opacity=".3"/></svg>
